<?xml version="1.0" encoding="utf-8"?>
<!-- Generator: Adobe Illustrator 26.0.1, SVG Export Plug-In . SVG Version: 6.00 Build 0)  -->
<svg version="1.1" id="Capa_1" xmlns="http://www.w3.org/2000/svg" xmlns:xlink="http://www.w3.org/1999/xlink" x="0px" y="0px"
	 viewBox="0 0 360.7 558.9" style="enable-background:new 0 0 360.7 558.9;" xml:space="preserve">
<style type="text/css">
	.st0{fill:url(#SVGID_1_);}
	.st1{clip-path:url(#SVGID_00000021099679986484165150000008611648091857004692_);}
	.st2{opacity:0.6;}
	.st3{fill:#F7B497;}
	.st4{fill:url(#SVGID_00000016754938014831137530000017256019541760216467_);}
	.st5{fill:#FFFFFF;}
	.st6{fill:none;stroke:#916670;stroke-width:0.6956;stroke-miterlimit:10;}
	.st7{fill:none;stroke:#FFFFFF;stroke-width:0.9487;stroke-miterlimit:10;}
	.st8{fill:#152332;}
	.st9{fill:#1C1B20;}
	.st10{fill:#303139;}
	.st11{fill:#111C29;}
	.st12{fill:#9F857E;}
	.st13{fill:#1E1E1C;}
	.st14{fill:#998470;}
	.st15{fill:#3D3F4A;}
	.st16{fill:#7E5442;}
	.st17{fill:#263A4D;}
	.st18{fill:#242631;}
	.st19{fill:#B99A8F;}
	.st20{fill:#3F4F6D;}
	.st21{fill:#F19382;}
</style>
<g>
	<g id="XMLID_21_">
		
			<linearGradient id="SVGID_1_" gradientUnits="userSpaceOnUse" x1="929.5636" y1="411.0944" x2="929.5636" y2="1121.5574" gradientTransform="matrix(-1 0 0 1 1109.9136 -464)">
			<stop  offset="0.1725" style="stop-color:#F18D5B"/>
			<stop  offset="0.5663" style="stop-color:#F08B5A"/>
			<stop  offset="0.7486" style="stop-color:#EB8354"/>
			<stop  offset="0.8868" style="stop-color:#E1764C"/>
			<stop  offset="1" style="stop-color:#D56541"/>
		</linearGradient>
		<rect x="7" y="10.8" class="st0" width="346.7" height="537.3"/>
	</g>
	<g>
		<g>
			<g>
				<defs>
					<path id="SVGID_00000096779498025642552050000007984348500035898022_" d="M27.9,532.1h304.9c3.2,0,5.8-2.6,5.8-5.8V32.6
						c0-3.2-2.6-5.8-5.8-5.8H27.9c-3.2,0-5.8,2.6-5.8,5.8v493.7C22.2,529.5,24.8,532.1,27.9,532.1z"/>
				</defs>
				<clipPath id="SVGID_00000101097937583934892830000001645925254288276149_">
					<use xlink:href="#SVGID_00000096779498025642552050000007984348500035898022_"  style="overflow:visible;"/>
				</clipPath>
				<g style="clip-path:url(#SVGID_00000101097937583934892830000001645925254288276149_);">
					<g>
						<g class="st2">
							<polygon class="st3" points="313.1,17.7 373.2,17.7 180.4,279.5 							"/>
							<polygon class="st3" points="139.8,17.7 180.4,17.7 180.4,279.5 							"/>
							<polygon class="st3" points="220.9,17.7 264,17.7 180.4,279.5 							"/>
							<polygon class="st3" points="444.3,27.3 444.3,105.9 180.4,279.5 							"/>
							<polygon class="st3" points="444.3,170.1 444.3,226.4 180.4,279.5 							"/>
							<polygon class="st3" points="-83.6,279.5 -83.6,226.4 180.4,279.5 							"/>
							<polygon class="st3" points="-83.6,27.3 -83.6,17.7 -12.5,17.7 180.4,279.5 							"/>
							<polygon class="st3" points="47.6,17.7 96.7,17.7 180.4,279.5 							"/>
							<polygon class="st3" points="-83.6,170.1 -83.6,105.9 180.4,279.5 							"/>
							<polygon class="st3" points="139.8,541.3 96.7,541.3 180.4,279.5 							"/>
							<polygon class="st3" points="47.6,541.3 -12.5,541.3 180.4,279.5 							"/>
							<polygon class="st3" points="180.4,279.5 -83.6,388.9 -83.6,332.5 							"/>
							<polygon class="st3" points="220.9,541.3 180.4,541.3 180.4,279.5 							"/>
							<polygon class="st3" points="-83.6,531.6 -83.6,453 180.4,279.5 							"/>
							<polygon class="st3" points="444.3,388.9 444.3,453 180.4,279.5 							"/>
							<polygon class="st3" points="444.3,279.5 444.3,332.5 180.4,279.5 							"/>
							<polygon class="st3" points="313.1,541.3 264,541.3 180.4,279.5 							"/>
							<polygon class="st3" points="444.3,531.6 444.3,541.3 373.2,541.3 180.4,279.5 							"/>
						</g>
					</g>
					
						<radialGradient id="SVGID_00000076601941918236049630000000898461755685172142_" cx="4.4561" cy="2799.4753" r="167.9743" gradientTransform="matrix(-0.7876 -0.8969 -0.6399 0.7288 1974.0693 -1754.7682)" gradientUnits="userSpaceOnUse">
						<stop  offset="0" style="stop-color:#9D4E3E"/>
						<stop  offset="0.26" style="stop-color:#97524A;stop-opacity:0.7375"/>
						<stop  offset="0.787" style="stop-color:#865B66;stop-opacity:0.2053"/>
						<stop  offset="0.9904" style="stop-color:#7D5E72;stop-opacity:0"/>
					</radialGradient>
					<path style="fill:url(#SVGID_00000076601941918236049630000000898461755685172142_);" d="M59.4,145
						C5.6,206.2,15.6,317,81.9,392.4s163.3,86.8,217.2,25.6s43.7-172-22.5-247.2S113.1,83.9,59.4,145z"/>
					<g>
						
							<ellipse transform="matrix(0.8767 -0.481 0.481 0.8767 -112.9946 121.7367)" class="st5" cx="181" cy="281.3" rx="119.5" ry="152.7"/>
						<path class="st6" d="M207.2,423.9c-37,0-75.2-19.2-104.6-52.8C48.9,309.9,40.5,219.8,84,170.3c18.1-20.7,42.6-31.5,70.7-31.5
							c37,0,75.2,19.2,104.6,52.8c53.7,61.2,62.1,151.3,18.6,200.8C259.7,412.9,235.3,423.9,207.2,423.9L207.2,423.9z"/>
					</g>
				</g>
			</g>
		</g>
	</g>
	<path id="XMLID_19_" class="st7" d="M28.9,532.1h303c3.7,0,6.7-3,6.7-6.7V33.6c0-3.7-3-6.7-6.7-6.7h-303c-3.7,0-6.7,3-6.7,6.7
		v491.8C22.2,529,25.2,532.1,28.9,532.1z"/>
</g>
<g>
	<path class="st8" d="M168.9,408c-3.8,2-4.4,7.2-0.5,11.2c4,4,12.5,5.9,18.1,6.1s12.2-6,10.1-9.3C194.6,412.9,176.9,403.9,168.9,408
		z"/>
	<path class="st9" d="M189.1,423.1c-1.3,2.2,1.2,3,2,3C191.9,426,190.4,420.9,189.1,423.1z"/>
	<path class="st9" d="M191.5,421.4c-1.3,2.2,1.2,3,2,3C194.2,424.3,192.8,419.2,191.5,421.4z"/>
	<path class="st9" d="M193.6,419.2c-1.3,2.2,1.2,3,2,3C196.3,422.1,194.9,417,193.6,419.2z"/>
	<path class="st9" d="M195.6,416.7c-1.3,2.2,1.2,3,2,3C198.4,419.5,196.9,414.5,195.6,416.7z"/>
	<path class="st8" d="M166.7,394.5c-1.3,4.5-1.1,20.8,4.5,22.8c5.5,1.9,12.4,1.2,16.1-5.2c3.7-6.5,4.6-12,5.6-16.1
		c1.8-7.2-7.1-8.5-14.6-8.1C172,388.1,168.2,389.2,166.7,394.5z"/>
	<path class="st8" d="M166.4,369.3c-1,11.7-1.8,29.8,2.9,32.6s18.2,5.2,22-1.7s9.2-36.2,8.8-43.9S168.3,346.5,166.4,369.3z"/>
	<path class="st8" d="M199.5,349c0,0-1.8,7.1,2,11.6s5.3,6.8,6,9.4s5.3,4,9.6,1.3s4.6-8.6,4.6-13s-5.2-11.8-9.5-14.3
		C208,341.6,201.3,346,199.5,349z"/>
	<path class="st10" d="M210.4,371.2c-1.7-0.3-2.1,1.9-1.5,2.3C209.6,373.9,212,371.5,210.4,371.2z"/>
	<path class="st10" d="M213.7,371c-1.8,0-1.6,2.3-1,2.6C213.6,373.9,215.4,371,213.7,371z"/>
	<path class="st10" d="M217.8,369.9c-1.8,0-1.6,2.3-1,2.6C217.6,372.7,219.4,369.8,217.8,369.9z"/>
	<path class="st10" d="M219.9,366.5c-1.2,1.3,0.5,2.8,1.1,2.5C221.9,368.6,221.1,365.3,219.9,366.5z"/>
	<path class="st8" d="M185,316.6c-4,1.8-11.1,4.7-9.2,13.8c1.9,9.1,17.2,21.8,24.4,25.9c7.2,4,20.2-0.6,15.3-9.1
		C209.6,337,196.6,311.6,185,316.6z"/>
	<path class="st8" d="M187.3,280.5c-7.8-3.7-11.5,3.2-13.1,11.9s-1.4,27.1,0.1,32.1s6.7,7.9,14.2,5.4c7.4-2.4,11.4-6.8,9.2-22
		C195.6,292.7,194.2,283.9,187.3,280.5z"/>
	<path class="st8" d="M139.6,414.5c-3.8,2.2-4.5,7.9-0.5,12.2s12.5,6.4,18.1,6.6s12.2-6.6,10.2-10.1
		C165.3,419.7,147.6,409.9,139.6,414.5z"/>
	<path class="st9" d="M159.8,430.8c-1.3,2.5,1.2,3.3,2,3.2C162.6,433.9,161.1,428.3,159.8,430.8z"/>
	<path class="st9" d="M162.2,429c-1.3,2.5,1.2,3.3,2,3.2C164.9,432.1,163.5,426.5,162.2,429z"/>
	<path class="st9" d="M164.3,426.5c-1.3,2.5,1.2,3.3,2,3.2S165.6,424.1,164.3,426.5z"/>
	<path class="st9" d="M166.4,423.8c-1.3,2.5,1.2,3.3,2,3.2S167.7,421.3,166.4,423.8z"/>
	<path class="st8" d="M134.6,399c0.8,5.5,1.1,16.6,4.3,20.8c2.8,3.7,13.6,4,15.9,1.1c2.3-2.8,5.4-16.5,5.9-24.3
		c0.4-6.2-9-8.9-14.1-9.3C141.4,387,133.4,390.2,134.6,399z"/>
	<path class="st8" d="M150.6,353.3c-8.3-2.3-17.6,0.6-19.4,10.7c-2.3,12.3,1.9,32,4.3,37c2.4,5,20.9,6.7,24.2,0
		c3.4-7,6.5-23,6.5-30.5S161.5,356.4,150.6,353.3z"/>
	<path class="st8" d="M156.4,277.7c-6.9-0.4-16.5,6.9-18.8,17.2s-5.9,32.7-7.8,43.5c-1.9,10.8-3.3,26.5,6.9,34.1s31.8,10.3,46,5.6
		s24-15.9,21.3-40.8c-2.8-24.9-9.7-48.5-16.6-54.4S166.9,278.4,156.4,277.7z"/>
	<path class="st11" d="M156.4,277.7c-6.9-0.4-16.5,6.9-18.8,17.2s-5.9,32.7-7.8,43.5c-1.9,10.8-3.3,26.5,6.9,34.1s31.8,10.3,46,5.6
		s24-15.9,21.3-40.8c-2.8-24.9-9.7-48.5-16.6-54.4S166.9,278.4,156.4,277.7z"/>
	<path class="st12" d="M199.9,337.9c-0.9-21.9-7.1-49.6-12.6-55c-6.5-6.3-14.8-4.4-25.4-5.1c-3.3-0.2-7.4,0-10.7,0.9
		c1.3,2.1,3.4,12.2,4.3,18.7c2,13.1,0.7,46.2,1.3,58.7c0.6,12.4,12.4,17.8,22.5,15.6C189.4,369.4,201.2,367.4,199.9,337.9z"/>
	<g>
		<path class="st13" d="M151.7,279.7c2.8,8.8,4.6,17.9,5.1,27.1c0.2,7.9,0.2,19.5,0.4,27.6l0.1,13.8c-0.6,12.5,2.5,23.7,17.2,23.7
			c2.3,0,4.6-0.2,6.8-0.7c-2.2,0.6-4.5,0.9-6.8,1c-10.9,0.6-17.4-6.6-18.1-17.1c-0.3-4.7-0.2-15.9-0.3-20.7l-0.1-27.5
			C155.7,297.6,154.1,288.5,151.7,279.7L151.7,279.7z"/>
	</g>
	<path class="st14" d="M199.9,337.9c-0.9-21.9-7.1-49.6-12.6-55c-6.5-6.3-14.8-4.4-25.4-5.1c-3.3-0.2-7.4,0-10.7,0.9
		c1.3,2.1,3.4,12.2,4.3,18.7c2,13.1,0.7,46.2,1.3,58.7c0.6,12.4,12.4,17.8,22.5,15.6C189.4,369.4,201.2,367.4,199.9,337.9z"/>
	<g>
		<path class="st15" d="M153.7,379.1c10,1.2,20.5,1.7,30-2c10.3-3.7,16.8-10.4,19.4-21.1c1.7-6.6,1.4-13.5,0.7-20.1
			c1.2,6.7,1.7,13.6,0.2,20.3c-2.8,13.4-12.1,20.2-24.8,23.4C170.7,381.4,162,380.7,153.7,379.1L153.7,379.1z"/>
	</g>
	<path class="st16" d="M188.1,273.1c0,0,0.6,12-1.5,16.2c-2.9,5.8-14,7.1-21.2,5.5s-13-7.6-14-21.4c-0.9-13.8-0.2-22.2-0.2-22.2
		s12.3-11.1,22.4-7.2C183.7,247.8,188.1,273.1,188.1,273.1z"/>
	<path class="st17" d="M225.6,164.4c0,0,1.4-10.6,4-14.6c2.7-4,12-5.1,19.9,1.9s9.4,13.8,7.1,20.8c-1.9,6.1-11.2,13.2-15.9,14.5
		C236.1,188.3,225.6,164.4,225.6,164.4z"/>
	<g>
		<path class="st13" d="M239.8,187c6.3-2.7,12.5-6.9,15.5-13.2c2.2-4.7,2.6-10.3-0.4-14.7c-0.8-1.6-1.8-3.1-2.7-4.5
			c1.1,1.4,2.2,2.8,3.1,4.3c3.4,4.4,3.3,10.6,0.9,15.5C253.2,180.8,246.6,185,239.8,187L239.8,187z"/>
	</g>
	<path class="st18" d="M231.6,169.1c0,0,0.6-12.4,6.7-14.4s11.2,5.4,12.6,9.3c1.4,3.9-2,10.8-6.4,13.9c-4.4,3-6.9,1.5-6.9,1.5
		L231.6,169.1z"/>
	<g>
		<path class="st13" d="M232.1,165.6c0.6-4.9,2.8-12.5,9.1-11.7c5.9,0.5,8.8,6.6,10.1,11.7c-2-4.4-4.7-10.1-10.1-10.6
			C235.3,154.3,233.6,161.3,232.1,165.6L232.1,165.6z"/>
	</g>
	<path class="st17" d="M252.1,210.8c-5.8-18.2-9.1-30.1-14.9-38.7c-5.9-8.6-14.9-11.8-26.3-15.5c-11.4-3.7-63.1-12.4-92.3,14.5
		c-2.1-5.7-6.2-13.8-12.2-15.4c-9.4-2.4-19.1,6.6-21.7,16.5s3.2,24.4,14,28.1c3.1,1.1,5.5,1.6,7.5,1.9c-2.2,9.9-1.9,19.3,0.2,29.8
		c3,15.3,14.1,34.2,32.2,41.5s46.5,12.3,64.2,6.8s28.8-13.1,38.8-22.1C251.9,249.1,258.1,229.8,252.1,210.8z"/>
	<path class="st11" d="M252.1,210.8c-5.8-18.2-9.1-30.1-14.9-38.7c-5.9-8.6-14.9-11.8-26.3-15.5c-11.4-3.7-63.1-12.4-92.3,14.5
		c-2.1-5.7-6.2-13.8-12.2-15.4c-9.4-2.4-19.1,6.6-21.7,16.5s3.2,24.4,14,28.1c3.1,1.1,5.5,1.6,7.5,1.9c-2.2,9.9-1.9,19.3,0.2,29.8
		c3,15.3,14.1,34.2,32.2,41.5s46.5,12.3,64.2,6.8s28.8-13.1,38.8-22.1C251.9,249.1,258.1,229.8,252.1,210.8z"/>
	<path class="st12" d="M216.3,235.9c-8.9-10-7.8-28.4-4.2-43.6c3.7-15.7,20.5-18.1,20.5-18.1s-8-5.1-47.3-2.3s-48.8,32-48.8,32
		s10.6-5.9,19.6-9.2c8.9-3.4,21.9-1.5,27,5.3c5,6.8,5.2,24.2-0.4,37.1s-18.4,23.5-31.3,27.5c-9.3,2.9-23.6-1.4-30.8-4
		c5.2,5.7,11.4,10.4,18,13.1c18.1,7.3,46.5,12.3,64.2,6.8s28.8-13.1,38.8-22.1c1.1-1,2.1-2,3.1-3.2
		C234.8,252.7,223.9,244.5,216.3,235.9z"/>
	<path class="st14" d="M216.3,235.9c-8.9-10-7.8-28.4-4.2-43.6c3.7-15.7,20.5-18.1,20.5-18.1s-8-5.1-47.3-2.3s-48.8,32-48.8,32
		s10.6-5.9,19.6-9.2c8.9-3.4,21.9-1.5,27,5.3c5,6.8,5.2,24.2-0.4,37.1s-18.4,23.5-31.3,27.5c-9.3,2.9-23.6-1.4-30.8-4
		c5.2,5.7,11.4,10.4,18,13.1c18.1,7.3,46.5,12.3,64.2,6.8s28.8-13.1,38.8-22.1c1.1-1,2.1-2,3.1-3.2
		C234.8,252.7,223.9,244.5,216.3,235.9z"/>
	<path class="st18" d="M101.7,187.6c-2.6-0.8-9.2-3.1-11-11s6.6-17,13-15.7s10.2,14.1,10.2,14.1s-3.6,2.2-6.9,5
		C103.7,182.8,101.7,187.6,101.7,187.6z"/>
	<g>
		<path class="st13" d="M91.9,168.6c4.1-7.2,10.3-12.2,17-4.5c1.5,1.9,2.6,4,3.2,6.3c-1-2.1-2.3-4.1-3.8-5.7
			C101.4,157.8,96.9,162.8,91.9,168.6L91.9,168.6z"/>
	</g>
	<g>
		<path class="st13" d="M232.7,174.2c-17.2,5.4-20.3,12.9-22.2,29.9l-0.7,6.8c-0.6,6.7,0.8,13.5,3.7,19.5
			c6.2,11.9,19,19.7,31.1,24.9c-10.6-3.9-20.8-9.9-28.2-18.7c-5.7-7.2-8.6-16.7-7.7-25.9l0.8-6.8C211.4,187,215.2,178.7,232.7,174.2
			L232.7,174.2z"/>
	</g>
	<g>
		<path class="st13" d="M111.7,201.5c-5.9,1.6-12.5,0.1-17.8-3c-5.5-3.2-8.5-9.4-9.5-15.4c-0.7-4-1-8.3,0.6-12.1
			c-1.1,3.9-0.6,8.1,0.3,11.9c0.9,3.9,2.4,7.7,4.9,10.8C95,199.7,104.2,202.7,111.7,201.5L111.7,201.5z"/>
	</g>
	<g>
		<path class="st13" d="M136.5,203.9c5.9-3.5,11.9-6.7,18.4-9c3.2-1.1,6.6-2.1,10.1-2.2c19-0.4,23,10.3,22.3,27.4
			c-0.6,10.3-4.2,20.6-11.1,28.4c-4.5,5.2-9.9,9.6-15.9,12.9c-3,1.6-6.2,3-9.5,3.9c-3.4,0.9-6.9,0.6-10.3,0.2
			c-6.8-0.8-13.4-2.5-19.8-4.9c6.4,2.2,13.1,3.7,19.9,4.4c3.4,0.3,6.8,0.5,10.1-0.4c3.2-0.9,6.4-2.3,9.3-3.9
			c5.9-3.4,11.2-7.7,15.6-12.8c9-10.2,12.1-24.6,10.5-37.9c-1.2-12.4-9.3-16.5-20.9-16.5c-3.4,0.1-6.7,1-9.9,2
			C148.6,197.6,142.4,200.6,136.5,203.9L136.5,203.9z"/>
	</g>
	<path class="st19" d="M206.2,232.8c-6.7,1.1-13.4,4.2-18,9.5s-10.3,10.9-8.4,14.2c2,3.3,14.8,19.9,23,18.7
		c8.2-1.2,17.8-9.1,19.8-15.6s0.7-12.7-3.4-17.3S210,232.2,206.2,232.8z"/>
	<path class="st17" d="M145.9,231.2c1.1,3,12.4,4.3,21.6,3.2s15.8-7.4,15.9-11.4c0.2-4-3.5-17.7-14-19.6
		C156.1,201.1,137.9,210.4,145.9,231.2z"/>
	<path class="st17" d="M212.5,224.2c-1.1-1.1-2.9-23.2,13.1-24.9s18.6,5.8,19.6,10.7s-0.2,11.1-0.9,11.9s-4.4,4.8-14.6,6.5
		C219.5,230.1,215.1,227.1,212.5,224.2z"/>
	
		<ellipse transform="matrix(4.119597e-02 -0.9992 0.9992 4.119597e-02 -95.2698 385.5454)" class="st20" cx="153.2" cy="242.4" rx="7.2" ry="11.5"/>
	
		<ellipse transform="matrix(4.119597e-02 -0.9992 0.9992 4.119597e-02 -11.8355 476.6325)" class="st20" cx="242.4" cy="244.5" rx="7.2" ry="11.5"/>
	<g>
		<path class="st9" d="M185.2,228.4c-6.8,6.7-18.1,9-27.1,6.5c-1.3-0.4-2.6-1-3.7-1.9c1.2,0.7,2.5,1.1,3.8,1.4
			C167.4,235.9,177.6,233.8,185.2,228.4L185.2,228.4z"/>
	</g>
	<g>
		<path class="st9" d="M220.6,229.8c4.9,7.3,22.8,6.4,30,3.1C243.9,237.7,224.6,238.5,220.6,229.8L220.6,229.8z"/>
	</g>
	<path class="st17" d="M137.8,161.6c0,0,6.4-8.2,16.6-11.9c10.2-3.7,19.9,2.1,32.4-0.7c12.6-2.9,22.3-3.5,28-1.2s10.4,9.8,6.8,20.1
		s-10.4,17.5-18.4,20.6s-15.8,1.6-15.8,1.6l4-3c0,0-2.9,0.7-5.9-3.4c-3-4.1-2.3-6.9-2.3-6.9s6.4,6.8,10.8,4s0-6.5-10.5-9.1
		S146.6,169,137.8,161.6z"/>
	<path class="st8" d="M137.8,161.6c0,0,6.4-8.2,16.6-11.9c10.2-3.7,19.9,2.1,32.4-0.7c12.6-2.9,22.3-3.5,28-1.2s10.4,9.8,6.8,20.1
		s-10.4,17.5-18.4,20.6s-15.8,1.6-15.8,1.6l4-3c0,0-2.9,0.7-5.9-3.4c-3-4.1-2.3-6.9-2.3-6.9s6.4,6.8,10.8,4s0-6.5-10.5-9.1
		S146.6,169,137.8,161.6z"/>
	<g>
		<path class="st13" d="M187.4,190c7.5,0.5,15.7-0.6,21.7-5.4c7.7-6.5,15-17,12.8-27.5c-1.4-7.6-6.3-8.9-13-10.7
			c3.7,0.8,8,1.4,10.7,4.2c3.6,4.2,4.4,10.4,3,15.7c-2.3,8.6-9,17.6-17,21.5C200,190.4,193.6,190.9,187.4,190L187.4,190z"/>
	</g>
	<g>
		<path class="st13" d="M183.2,176.8c2.6,2.8,6.5,5.5,10.4,4c1.4-0.5,2.3-2,1.3-3.3c-2.4-2.9-6.9-3.9-10.5-4.9
			c-14-3.5-29.3-1.9-42.6-8.2c-1.4-0.7-2.9-1.5-4-2.7c2.5,2.1,5.6,3.1,8.7,4c6.2,1.8,12.6,2.6,19,3.2c6.4,0.5,12.9,1.1,19.2,2.8
			c3.2,0.8,6.3,1.8,9.1,3.7c4.1,2.8,2.2,6.7-2.4,6.5C188,181.6,185.2,179.3,183.2,176.8L183.2,176.8z"/>
	</g>
	<path class="st8" d="M135.8,353.7c0,0-4.5,5.9-2.7,11.5s2.1,8.4,1.8,11s3.3,5.8,8.3,5s7.6-6.1,9.4-10.1c1.7-4-0.1-12.9-3.1-16.9
		C146.4,350.3,138.6,351.7,135.8,353.7z"/>
	<path class="st10" d="M137,378.4c-1.4-1-2.7,0.9-2.3,1.5C135.2,380.6,138.4,379.3,137,378.4z"/>
	<path class="st10" d="M140.1,379.5c-1.6-0.6-2.4,1.5-1.9,2C138.9,382.1,141.7,380.2,140.1,379.5z"/>
	<path class="st10" d="M144.3,380.1c-1.6-0.6-2.4,1.5-1.9,2C143.1,382.7,145.9,380.7,144.3,380.1z"/>
	<path class="st10" d="M147.6,377.9c-1.6,0.7-0.7,2.8,0,2.7C148.5,380.6,149.2,377.2,147.6,377.9z"/>
	<g>
		<path class="st15" d="M133.5,357.6c-0.4,1.8-0.8,3.7-0.6,5.5c0.6,2.7,1.9,5.3,2.3,8.1c0.2,1.9-0.7,3.6-0.1,5.5
			c0.2,0.9,0.5,1.8,1,2.6c-0.6-0.7-0.9-1.6-1.2-2.5c-0.8-1.8-0.1-3.8-0.2-5.5c-0.1-0.9-0.4-1.8-0.7-2.7l-0.8-2.7
			C132,363.2,132.5,360.2,133.5,357.6L133.5,357.6z"/>
	</g>
	<path class="st8" d="M135.2,318.3c-4.4,0-12.1,0-13.9,9s7.2,26.9,12.2,33.4s18.8,7.4,17.7-2.3C149.7,346.7,147.8,318.2,135.2,318.3
		z"/>
	<g>
		<path class="st15" d="M142.9,323c3.1,4.7,4.8,10.2,5.6,15.8c0.9,5.5,1.7,11.1,2.3,16.7c-0.9-4.8-2-11.7-2.8-16.6
			C147.3,333.3,145.6,328,142.9,323L142.9,323z"/>
	</g>
	<path class="st8" d="M150.8,287.7c-5.7-6.5-11.9-1.6-16.7,5.7c-4.9,7.3-11.9,24.3-12.5,29.5s3.1,9.9,10.9,10.6s13.2-1.7,17.2-16.6
		C153.6,302.1,155.8,293.5,150.8,287.7z"/>
	<g>
		<path class="st15" d="M128.4,332.8c4.6,1,10.9,2.1,14.1-2c3-4.1,5.2-8.7,6.7-13.6c1.6-4.8,2.7-9.8,3.5-14.8
			c0.8-4.9,1.1-10.4-2-14.7c3.3,4.2,3.1,9.7,2.4,14.7c-1.6,10-4.1,20.3-10.3,28.5C139.3,335.2,133,334,128.4,332.8L128.4,332.8z"/>
	</g>
	<path class="st5" d="M152.1,229c0,0,1.2,2.6,5.2,4.1c3,1.1,10.9,0.6,15-1.1c3.6-1.6,7.4-3.7,7.3-7.3c-0.1-3.6-0.9-8.6-2.9-11.2
		s-8.9-3.9-12.2-3c-3.4,0.9-9.6,4-11.4,6.3C151.4,219.1,148.2,224.7,152.1,229z"/>
	<path class="st13" d="M143.4,218c0,0,2.2,1,6-0.7s9.9-7.8,16.9-8.4s10.3,3,11.8,5.8c1.6,2.8,1.4,9.9,1.4,9.9s0.3-7.1-4-11
		c-4.1-3.8-11.6-3-16.6-0.4s-7.6,5.8-7.9,9.4c-0.2,3.6,1,6.3,1,6.3s-2.4-2.4-2.4-6.9c0-1.9,1-2.9,1-2.9S148.5,221,143.4,218z"/>
	<circle class="st13" cx="167.2" cy="220.1" r="7.9"/>
	<circle class="st5" cx="163.5" cy="217.5" r="2.1"/>
	<circle class="st5" cx="167.2" cy="220.1" r="1.5"/>
	<path class="st5" d="M214.7,223.9c0.6,1.8,4.1,3.1,7.4,3.5c3.3,0.4,9.8-0.7,14.2-3c2.7-1.4,3.1-3.3,3.5-7.4
		c0.5-4.1-0.1-8.7-1.6-9.7s-6.5-3.4-10.2-2.5c-3.7,0.8-8,1.2-10.8,4C214.6,211.5,213,218.3,214.7,223.9z"/>
	<circle class="st13" cx="230.5" cy="215.1" r="7.9"/>
	<circle class="st5" cx="226.9" cy="212.5" r="2.1"/>
	<circle class="st5" cx="230.5" cy="215.1" r="1.5"/>
	<path class="st13" d="M214.7,223.9c0,0-1-7.7,0.4-11.1c1.6-4,6.1-6.1,12.6-6.8c6.5-0.8,10.7,1.8,11.6,5.3
		c1.4,5.2-0.1,10.1-0.1,10.1s1.8-4.3,1.8-7.1c0.1-2.8-0.3-4.3-0.3-4.3s0.9,0.1,2.3-1.2c1.4-1.2,1.9-2.1,1.9-2.1s-1.8,1.4-3.8,1.2
		s-3.2-4-8.9-4.3c-6.4-0.3-10.2,1.2-14.6,4.3C214.6,210,211.8,214.5,214.7,223.9z"/>
	<path class="st21" d="M214.1,263.5c0,0-0.6-1.9,0.1-2.8s1.3-1.8,1.3-1.8s-9.3,1-13.7,0.9c-6.3-0.3-8.2-3.8-8.2-3.8l-2-2.5
		c0,0,2.1,5.8,3.2,7.7s4.4,4.6,7.6,4.5c3.2-0.2,11.2-0.6,11.2-0.6L214.1,263.5z"/>
	<path class="st5" d="M198.1,264.1c0,0,0.6-1.4,1.6-1.2s1.9,1.4,1.9,1.4s1.2-1.5,2.2-0.5c1,0.9,1.5,0.7,1.5,0.7s0.9-1.2,2.1-0.5
		s1.9,0.7,1.9,0.7s1.3-1,2.4-0.6s1.1,0.4,1.1,0.4s1.7-1.7,2.4-0.9s-0.1,1.9-0.1,1.9s-12.5,1.3-14.2,1C199.3,266,199,265,198.1,264.1
		z"/>
	<path class="st13" d="M187.8,251.1c0,0,0.1-1.4,1.4-2.7c1.3-1.3,3.9-1.2,3.9-1.2l-2.6,2c0,0,2.3,5.5,4.1,7.5s6.5,3.1,13.8,2.2
		s12.3,0,12.3,0s-5.8,0-10.4,0.6c-4.6,0.6-10.6,1.6-14.3-0.6s-6.4-9.3-6.4-9.3L187.8,251.1z"/>
	<polygon class="st13" points="213.9,250.8 212.5,259.2 215.9,249.9 	"/>
	<path class="st13" d="M192.9,255.7c0.3,0.3,2.2,4.5,3.6,6.7s4.4,3.9,8.3,3.4s11.7-0.3,11.7-0.3s-8.3,0.7-12.1,1.1s-6.7-0.6-8.8-4
		c-2.1-3.3-4.6-10-4.6-10L192.9,255.7z"/>
	<path class="st13" d="M213,252.1c-1.3-0.1-6.9-2.7-7.3-5.6s4-5,9.1-4.4s6.3,3,5.3,5.2S215.6,252.2,213,252.1z"/>
	<path class="st5" d="M211.3,243.3c-2,0-4.1,1.7-3.6,2.7s4.8-1.3,6.1-1.9C215.1,243.6,213.3,243.3,211.3,243.3z"/>
</g>
<g>
	<path class="st5" d="M331.7,12c9.4,0,17,7.6,17,17v500.8c0,9.4-7.6,17-17,17H29c-9.4,0-17-7.6-17-17V29c0-9.4,7.6-17,17-17H331.7
		 M331.7,0H29C13,0,0,13,0,29v500.8c0,16,13,29,29,29h302.6c16,0,29-13,29-29V29C360.7,13,347.7,0,331.7,0L331.7,0z"/>
</g>
</svg>
